#!OML:ASF Y:\EmotionMaleHayes\Project 1\Capture day 1\Session 1\Male1.ASF
:FULLY-SPECIFIED
:DEGREES
162
root -4.47604 14.6604 1.74431 179.878 -61.8217 -170.837
lowerback 35.8061 7.88866 -7.29541
upperback 12.625 4.5515 -4.25233
thorax -3.95767 1.15844 -2.21026
lowerneck -19.7855 -9.79806 -0.0051746
upperneck 6.41802 -15.3799 15.0565
head 6.43634 -6.51982 2.96275
rclavicle 9.54166e-015 1.90833e-014
rhumerus 18.0452 27.678 -51.8893
rradius 80.5288
rwrist 14.0253
rhand -17.9076 -15.3979
rfingers 7.12502
rthumb 8.3595 -45.2125
lclavicle 9.54166e-015 1.90833e-014
lhumerus 6.38488 -49.2808 89.6392
lradius 63.7342
lwrist -19.2673
lhand -15.5923 -29.1929
lfingers 7.12502
lthumb 10.5935 0.52007
rfemur -58.2591 -17.4462 8.77951
rtibia 77.2608
rfoot -15.568 -11.6834
rtoes 9.82153
lfemur -42.7235 19.721 8.22012
ltibia 55.1667
lfoot -10.2574 5.20627
ltoes -27.5218
163
root -4.4873 14.6415 1.68416 181.926 -60.5902 -173.39
lowerback 35.6582 8.35989 -7.65246
upperback 12.5384 5.02532 -4.19903
thorax -4.02273 1.37217 -2.13736
lowerneck -19.1553 -10.7642 -0.663471
upperneck 6.41612 -16.4746 15.1139
head 6.46996 -7.07613 2.94887
rclavicle 1.27222e-014 -6.44062e-014
rhumerus 12.8335 26.1044 -57.919
rradius 79.9717
rwrist 14.4554
rhand -19.289 -15.7144
rfingers 7.12502
rthumb 7.02615 -45.5777
lclavicle 1.27222e-014 -6.44062e-014
lhumerus 5.63773 -47.1639 88.4514
lradius 65.351
lwrist -17.8985
lhand -16.6783 -28.9352
lfingers 7.12502
lthumb 9.54576 0.828576
rfemur -59.5436 -18.7601 8.86621
rtibia 75.9358
rfoot -15.7129 -13.533
rtoes 7.93675
lfemur -41.403 20.1861 7.67941
ltibia 54.9915
lfoot -10.5915 5.16632
ltoes -27.4316
164
root -4.48663 14.6274 1.61846 183.586 -59.5473 -175.505
lowerback 35.5425 8.66582 -8.04164
upperback 12.4029 5.32933 -3.89008
thorax -4.17926 1.50649 -1.7249
lowerneck -18.4621 -11.6341 -1.54441
upperneck 6.42385 -17.3287 14.7956
head 6.4601 -7.54528 2.89045
rclavicle -6.59965e-014 -5.88403e-014
rhumerus 7.75862 23.9586 -63.2659
rradius 79.918
rwrist 13.5376
rhand -20.626 -16.5054
rfingers 7.12502
rthumb 5.73546 -46.4078
lclavicle -6.59965e-014 -5.88403e-014
lhumerus 4.70464 -44.3263 87.4665
lradius 66.523
lwrist -15.994
lhand -18.7218 -28.7109
lfingers 7.12502
lthumb 7.57367 1.13345
rfemur -60.9106 -20.118 9.42156
rtibia 74.6105
rfoot -15.8066 -15.5992
rtoes 9.67764
lfemur -40.1779 20.2868 7.30295
ltibia 54.6918
lfoot -10.6768 5.33307
ltoes -30.3016
165
root -4.48757 14.6166 1.54984 185.065 -58.5063 -177.441
lowerback 35.3967 8.88182 -8.27722
upperback 12.2847 5.58329 -3.58698
thorax -4.30348 1.62328 -1.37609
lowerneck -17.7093 -12.3694 -2.29922
upperneck 6.32969 -18.0029 14.2799
head 6.36463 -7.94815 2.78834
rclavicle 3.97569e-015 -6.36111e-015
rhumerus 2.13781 20.9853 -68.7222
rradius 80.3943
rwrist 12.5055
rhand -21.9279 -17.529
rfingers 7.12502
rthumb 4.47837 -47.4617
lclavicle 3.97569e-015 -6.36111e-015
lhumerus 3.45537 -41.0906 86.6227
lradius 67.2954
lwrist -14.0311
lhand -20.393 -28.6937
lfingers 7.12502
lthumb 5.96039 1.20248
rfemur -62.1628 -21.424 10.2243
rtibia 73.1963
rfoot -16.319 -17.5619
rtoes 13.026
lfemur -38.9079 20.2488 7.01245
ltibia 54.3208
lfoot -10.7347 5.40844
ltoes -32.1874
166
root -4.49685 14.6059 1.47463 186.277 -57.3692 -179.218
lowerback 35.3269 9.0906 -8.22004
upperback 12.1628 5.90034 -3.41231
thorax -4.43399 1.78179 -1.33507
lowerneck -16.835 -13.2309 -3.2285
upperneck 6.20026 -18.8956 14.1899
head 6.32404 -8.44005 2.81346
rclavicle 7.39479e-014 -2.82274e-014
rhumerus -1.85628 17.3287 -72.0988
rradius 80.2776
rwrist 9.60402
rhand -23.2076 -18.7805
rfingers 7.12502
rthumb 3.24257 -48.7356
lclavicle 7.39479e-014 -2.82274e-014
lhumerus 2.08151 -37.8677 85.465
lradius 67.7705
lwrist -11.9448
lhand -21.4302 -28.7664
lfingers 7.12502
lthumb 4.95898 1.15554
rfemur -63.1695 -22.6093 11.2185
rtibia 71.6768
rfoot -16.856 -19.5308
rtoes 15.5605
lfemur -37.4136 20.2813 6.85348
ltibia 53.92
lfoot -11.0289 5.06294
ltoes -31.176
167
root -4.50103 14.5935 1.39165 187.131 -56.4043 -180.651
lowerback 35.3942 9.13228 -7.76755
upperback 11.9999 6.1259 -3.32288
thorax -4.62212 1.91486 -1.55715
lowerneck -15.8703 -14.1457 -4.37445
upperneck 6.11955 -19.9341 14.6292
head 6.39053 -8.97419 3.00207
rclavicle 3.97569e-015 -8.62725e-014
rhumerus -6.5336 13.1006 -75.4856
rradius 80.9079
rwrist 7.17716
rhand -25.0956 -19.6389
rfingers 7.12502
rthumb 1.41926 -49.6139
lclavicle 3.97569e-015 -8.62725e-014
lhumerus 0.995663 -34.8083 83.722
lradius 67.4338
lwrist -9.62107
lhand -22.8966 -29.1239
lfingers 7.12502
lthumb 3.54299 0.826382
rfemur -64.2401 -24.006 12.8518
rtibia 70.2662
rfoot -16.6577 -22.2125
rtoes 14.7352
lfemur -35.8152 19.8776 6.88816
ltibia 53.2394
lfoot -11.2085 4.89427
ltoes -30.9655
168
root -4.50277 14.5808 1.29141 187.187 -55.0441 -181.314
lowerback 35.3158 9.21574 -7.47689
upperback 11.915 6.37403 -3.04089
thorax -4.70493 2.0376 -1.49314
lowerneck -15.3062 -14.7201 -5.06672
upperneck 6.20192 -20.4183 13.6512
head 6.31336 -9.29194 2.77342
rclavicle 3.57812e-014 1.15295e-014
rhumerus -10.3674 9.35721 -77.8539
rradius 81.4348
rwrist 4.84433
rhand -27.0302 -20.5636
rfingers 7.12502
rthumb -0.449262 -50.5429
lclavicle 3.57812e-014 1.15295e-014
lhumerus -0.0619344 -30.9382 81.9789
lradius 66.3963
lwrist -6.89076
lhand -24.2688 -29.2944
lfingers 7.12502
lthumb 2.21772 0.673845
rfemur -65.1361 -24.5046 15.0113
rtibia 69.1217
rfoot -17.6914 -24.549
rtoes 18.9715
lfemur -33.6408 19.7161 7.69422
ltibia 52.3461
lfoot -11.1615 5.07014
ltoes -32.6692
169
root -4.5173 14.5707 1.18651 188.371 -53.836 -183.122
lowerback 34.8256 9.08881 -7.99223
upperback 11.8639 6.1565 -2.7681
thorax -4.65226 1.92088 -0.843707
lowerneck -14.9674 -15.2642 -6.42993
upperneck 6.59076 -20.9007 13.4273
head 6.53382 -9.54863 2.8207
rclavicle 3.97569e-016 -9.34288e-015
rhumerus -13.4975 6.54625 -79.3014
rradius 81.8442
rwrist 2.30172
rhand -28.1036 -22.4627
rfingers 7.12502
rthumb -1.48595 -52.4373
lclavicle 3.97569e-016 -9.34288e-015
lhumerus -1.53354 -26.018 80.4331
lradius 65.2158
lwrist -3.26225
lhand -24.4827 -28.694
lfingers 7.12502
lthumb 2.01113 1.27624
rfemur -66.3711 -25.6205 16.6647
rtibia 68.5075
rfoot -18.896 -26.4377
rtoes 24.1578
lfemur -31.8847 19.2048 7.45482
ltibia 51.6052
lfoot -11.2629 5.10982
ltoes -33.0962
170
root -4.52794 14.5572 1.07237 189.335 -52.612 -184.728
lowerback 34.3068 8.87756 -8.37694
upperback 11.7563 5.87816 -2.62747
thorax -4.61956 1.78761 -0.376469
lowerneck -14.507 -15.7513 -7.74743
upperneck 7.05727 -21.3821 13.4498
head 6.7931 -9.79243 2.93392
rclavicle -5.1684e-014 -2.5842e-015
rhumerus -16.7265 4.09905 -80.286
rradius 82.6111
rwrist -1.08676
rhand -28.7247 -25.5295
rfingers 7.12502
rthumb -2.08581 -55.499
lclavicle -5.1684e-014 -2.5842e-015
lhumerus -3.19351 -21.2352 78.5629
lradius 63.2266
lwrist -0.846324
lhand -25.7115 -27.9353
lfingers 7.12502
lthumb 0.824378 2.04289
rfemur -67.9096 -26.6779 18.9315
rtibia 68.6895
rfoot -18.6937 -28.6489
rtoes 24.2859
lfemur -30.1454 18.7056 7.37777
ltibia 50.9967
lfoot -11.2657 4.67282
ltoes -31.6839
171
root -4.53702 14.5439 0.949507 189.847 -51.3353 -185.957
lowerback 33.7154 8.58563 -8.46155
upperback 11.7937 5.58359 -2.65226
thorax -4.49616 1.64686 -0.196044
lowerneck -14.0701 -16.2018 -8.74891
upperneck 7.58129 -21.904 13.5198
head 7.05931 -10.0452 3.00715
rclavicle 2.74323e-014 -8.63719e-014
rhumerus -19.7472 1.9661 -81.0642
rradius 83.3614
rwrist -5.07282
rhand -29.9434 -28.1569
rfingers 7.12502
rthumb -3.26284 -58.1117
lclavicle 2.74323e-014 -8.63719e-014
lhumerus -4.53781 -16.2575 76.0106
lradius 60.9964
lwrist 1.41529
lhand -24.5114 -25.6477
lfingers 7.12502
lthumb 1.98347 4.32286
rfemur -68.9089 -27.3291 20.9533
rtibia 68.9088
rfoot -19.4006 -29.5202
rtoes 27.7551
lfemur -28.2093 18.1331 7.63322
ltibia 50.3654
lfoot -10.9376 4.01565
ltoes -30.4139
172
root -4.54206 14.5338 0.817707 190.099 -50.0394 -186.938
lowerback 33.2158 8.21519 -8.48003
upperback 11.7213 5.18504 -2.75925
thorax -4.37292 1.46196 -0.128863
lowerneck -13.6398 -16.5922 -9.33221
upperneck 8.02478 -22.4144 13.5247
head 7.25109 -10.2942 3.0111
rclavicle -1.21259e-014 1.5207e-014
rhumerus -22.3458 0.323543 -81.6702
rradius 83.7077
rwrist -9.16732
rhand -31.8212 -30.3823
rfingers 7.12502
rthumb -5.07606 -60.3015
lclavicle -1.21259e-014 1.5207e-014
lhumerus -6.00415 -11.8227 72.8752
lradius 58.4607
lwrist 4.35035
lhand -23.9987 -23.1154
lfingers 7.12502
lthumb 2.47859 6.84992
rfemur -69.7934 -27.9559 23.3966
rtibia 69.4158
rfoot -18.7724 -30.2002
rtoes 28.0498
lfemur -26.2675 17.3924 8.08119
ltibia 49.7834
lfoot -10.2895 3.54872
ltoes -29.7646
173
root -4.54531 14.5237 0.674672 189.889 -48.5679 -187.464
lowerback 32.7933 7.80674 -8.26414
upperback 11.5418 4.79241 -2.99626
thorax -4.36963 1.29626 -0.328439
lowerneck -12.9293 -16.8895 -10.0013
upperneck 8.41924 -22.8754 13.9187
head 7.44281 -10.513 3.16684
rclavicle -2.08724e-014 2.66371e-014
rhumerus -24.8806 -0.995696 -82.005
rradius 84.0464
rwrist -13.6283
rhand -33.4429 -33.0654
rfingers 7.12502
rthumb -6.64179 -62.9413
lclavicle -2.08724e-014 2.66371e-014
lhumerus -7.8898 -8.0561 69.3214
lradius 55.6498
lwrist 7.02808
lhand -24.1873 -19.9701
lfingers 7.12502
lthumb 2.29644 9.99731
rfemur -70.4865 -28.2947 26.4503
rtibia 69.9427
rfoot -15.102 -31.3321
rtoes 21.1987
lfemur -24.1669 16.7484 8.95708
ltibia 49.2825
lfoot -9.05303 3.2567
ltoes -29.822
174
root -4.55643 14.5116 0.521517 189.857 -47.0021 -188.469
lowerback 32.4233 7.399 -8.26826
upperback 11.3479 4.29154 -3.41302
thorax -4.39463 1.07147 -0.574085
lowerneck -11.9482 -17.0965 -10.7021
upperneck 8.67359 -23.2604 14.4892
head 7.56889 -10.7085 3.416
rclavicle 2.18663e-014 -7.95139e-015
rhumerus -26.8508 -2.12895 -82.0323
rradius 83.2514
rwrist -18.1641
rhand -34.307 -34.7551
rfingers 7.12502
rthumb -7.47594 -64.603
lclavicle 2.18663e-014 -7.95139e-015
lhumerus -10.0366 -4.71552 65.3799
lradius 52.5698
lwrist 9.24529
lhand -25.56 -18.8103
lfingers 7.12502
lthumb 0.970734 11.1672
rfemur -69.6531 -28.2317 27.2304
rtibia 70.6258
rfoot -19.3244 -28.4553
rtoes 36.078
lfemur -21.938 16.1421 9.42959
ltibia 48.9583
lfoot -7.4726 2.68928
ltoes -30.5668
